<?xml version="1.0" standalone="no"?><!DOCTYPE svg PUBLIC "-//W3C//DTD SVG 1.1//EN" "http://www.w3.org/Graphics/SVG/1.1/DTD/svg11.dtd"><svg t="1576735901630" class="icon" viewBox="0 0 1026 1024" version="1.1" xmlns="http://www.w3.org/2000/svg" p-id="2648" xmlns:xlink="http://www.w3.org/1999/xlink" width="30.05859375" height="30"><defs><style type="text/css"></style></defs><path d="M554.801622 725.056131c0.853982 0.087998 3.844921-1.528969 8.330829-4.248913a242.296031 242.296031 0 0 1-46.942037 4.906899c12.782738 0.074998 25.549476-0.119998 38.611208-0.657986z m-68.005605 0c7.726842 0.316993 15.349685 0.48699 22.954529 0.595987a242.488027 242.488027 0 0 1-26.253461-1.91596c1.678966 0.894982 2.815942 1.369972 3.298932 1.319973z" fill="#F7B970" p-id="2649"></path><path d="M514.307453 0.46999C231.650249 0.46999 2.482949 229.522293 2.482949 512.296494c0 174.09943 86.961217 327.829277 219.795493 420.256381 25.799471-89.852157 90.844137-157.587768 179.388321-188.760129-22.892531-35.163279-31.106362-55.068871-30.073384-64.85267a242.209033 242.209033 0 0 1-51.556942-51.611941C69.009585 598.670723 283.80318 94.297066 514.544448 215.588579c52.365926-27.536435 103.631875-23.009528 148.786949 0.795983 18.614618-21.379562 41.999139-37.416233 47.796019-21.576557l17.239647 47.226031 16.57366 45.101075c0.608988 0.769984 1.207975 1.540968 1.807963 2.315953l48.446006 9.017815 49.353988 9.092814c25.453478 4.756902-16.239667 62.848711-43.969098 78.577388 41.666146 110.227739 26.679453 229.825287-92.238109 241.513047a242.213033 242.213033 0 0 1-42.577126 44.518087c9.371808 4.714903 4.714903 25.287481-28.453417 75.448453 83.297292 32.65233 144.33804 98.49598 169.184531 184.82121 132.741278-92.440104 219.632496-246.119953 219.632495-420.148384C1026.123956 229.521293 796.956656 0.47099 514.307453 0.47099z" fill="#F7B970" p-id="2650"></path><path d="M483.497085 723.735158a242.33403 242.33403 0 0 0 26.253461 1.91696c2.149956 0.028999 4.298912 0.053999 6.443868 0.065999a242.005037 242.005037 0 0 0 46.942037-4.905899c23.042527-13.979713 85.700242-57.163828 102.627896-48.638003a242.084035 242.084035 0 0 0 42.577126-44.518087 189.518113 189.518113 0 0 1-16.927652 0.936981c34.829286-50.531964 52.418925-112.752688 42.031138-194.104019l-216.53456 1.061978h-2.594946v-0.013l-215.829574-1.049978c-10.392787 81.348332 7.200852 143.573056 42.031138 194.106019a202.83884 202.83884 0 0 1-20.47658-1.266974 242.500027 242.500027 0 0 0 51.557942 51.611941c3.164935-29.977385 92.814097 34.63329 111.898706 44.797082z" fill="#FCE9EA" p-id="2651"></path><path d="M637.30693 747.623668c-0.232995 0.353993-0.440991 0.686986-0.682986 1.044978l-115.827624-0.115997-115.942623 0.115997c-1.112977-1.669966-2.140956-3.264933-3.190934-4.8769-88.545184 31.172361-153.58885 98.907972-179.388321 188.760129 82.825301 57.634818 183.470237 91.448125 292.029011 91.448125 108.624772 0 209.332707-33.859306 292.184008-91.556122C781.64397 846.122648 720.602222 780.273998 637.30693 747.623668z" fill="#A4CC2D" p-id="2652"></path><path d="M520.79732 748.552649l115.826624 0.115997c0.241995-0.357993 0.449991-0.690986 0.682986-1.044978 33.16832-50.161971 37.824224-70.734549 28.452417-75.448453-16.922653-8.526825-79.580368 34.654289-102.626896 48.637003-4.485908 2.714944-7.476847 4.335911-8.329829 4.247913a818.528214 818.528214 0 0 1-45.056076 0.591987 823.681108 823.681108 0 0 1-22.954529-0.595987c-0.47999 0.049999-1.619967-0.428991-3.299932-1.319973-19.084609-10.159792-108.73277-74.774467-111.902705-44.797082-1.032979 9.787799 7.180853 29.689391 30.073383 64.85267 1.044979 1.611967 2.077957 3.206934 3.189934 4.8769l115.944623-0.115997z" fill="#CFE07D" p-id="2653"></path><path d="M663.086402 216.663557l0.239995-0.269995c-45.154074-23.809512-96.416023-28.337419-148.785949-0.795983 52.082932-27.387438 103.310881-22.779533 148.544954 1.065978z m83.491287 72.762508l0.162997 0.029999a201.822861 201.822861 0 0 0-1.807963-2.316953l0.132997 0.362993 1.511969 1.923961z m-48.766 338.993047z" fill="#FF9182" p-id="2654"></path><path d="M298.476879 434.48909l215.830574 1.049978V215.471581l0.236995 0.115998C283.80418 94.298066 69.005585 598.670723 320.033437 627.327135a202.763842 202.763842 0 0 0 20.47658 1.265974c-34.829286-50.531964-52.423925-112.752688-42.032138-194.104019z" fill="#FF9182" p-id="2655"></path><path d="M514.307453 435.538068v0.013h2.594946l216.53456-1.061978c10.387787 81.347332-7.201852 143.572056-42.032138 194.104019a189.518113 189.518113 0 0 0 16.927653-0.936981c118.917561-11.68776 133.900254-131.284308 92.239108-241.513047-9.437806 5.35589-17.264646 5.818881-20.259584-2.42395L762.955353 336.493099l-17.239646-47.225031-49.469985-9.209811-49.470986-9.209812c-17.402643-3.264933-3.239934-31.626351 16.310666-54.184888-45.234072-23.841511-96.462022-28.453416-148.544954-1.069978l-0.236995-0.116998v220.061487z m230.762267-148.036964l0.645987 1.762964 0.861982 0.161997-1.507969-1.923961z" fill="#FF7866" p-id="2656"></path><path d="M745.715707 289.268068l17.239646 47.225031 17.356645 47.226032c2.999938 8.242831 10.825778 7.77984 20.259584 2.42395 27.724431-15.727677 69.422576-73.820486 43.969098-78.577388l-49.353988-9.092814-48.446006-9.017815-0.162997-0.028999-0.861982-0.157997zM646.774736 270.849445l49.470986 9.209812 49.469985 9.208811-0.645987-1.761964-0.132997-0.362993-16.57366-45.101075-17.239647-47.225031c-5.797881-15.840675-29.181402 0.194996-47.796019 21.575557l-0.241995 0.269995c-19.551599 22.559537-33.709309 50.920956-16.310666 54.186888z" fill="#CFE07D" p-id="2657"></path></svg>