<?xml version="1.0" standalone="no"?><!DOCTYPE svg PUBLIC "-//W3C//DTD SVG 1.1//EN" "http://www.w3.org/Graphics/SVG/1.1/DTD/svg11.dtd"><svg t="1576735913417" class="icon" viewBox="0 0 1024 1024" version="1.1" xmlns="http://www.w3.org/2000/svg" p-id="2776" xmlns:xlink="http://www.w3.org/1999/xlink" width="30" height="30"><defs><style type="text/css"></style></defs><path d="M978.0736 512c0 257.3824-208.6912 466.0736-466.0736 466.0736S45.9264 769.3824 45.9264 512 254.6176 45.9264 512 45.9264s466.0736 208.6912 466.0736 466.0736z" fill="#5495E7" p-id="2777"></path><path d="M761.9584 529.5616s11.1616-16.128 27.4432-14.6432 21.4016 35.328 20.0704 54.272-12.8 51.4048-47.5136 73.8304v-113.5104z m-504.3712 0c0.1024 0-10.752-16.128-26.4704-14.6432s-20.6848 35.328-19.456 54.272 12.4416 51.4048 46.08 73.8304v-113.5104z" fill="#BD8651" p-id="2778"></path><path d="M229.376 688.64c-2.048 8.4992-3.6864 10.3424-7.168 15.4624-6.9632 8.3968-15.872 10.24-22.8352 9.9328-8.9088 16.1792-30.72 19.6608-49.664 8.0896-15.4624-9.472-19.712-28.8256-30.0544-44.544 3.8912 4.7616 8.704 9.472 13.2096 10.9056 7.9872 2.56 12.3904-5.12 10.9056-11.9808-0.3072-1.4336-0.8704-3.2768-1.6384-5.2736l-1.1264-1.024-1.024-1.024c-5.12-5.12-9.216-12.1344-11.776-17.1008l-0.256-0.6656c-1.1264-2.816-1.7408-6.0416-1.4336-9.0624v-0.1024c0.1024-1.28 0.4096-2.56 0.9216-3.7888 0.256-0.7168 0.6656-1.3824 1.1264-2.048 3.7888-5.632 11.4176-7.0656 17.2544-4.1984 0.6144 0.512 1.28 1.024 1.9456 1.6896 0-0.1536 0-0.3072-0.1024-0.512-1.536-11.4688 10.9056-18.944 19.968-15.5136 2.2016 1.2288 4.1984 3.2768 5.9904 5.8368l0.9216 1.4336c3.7888 5.9904 6.4512 13.9776 7.68 20.2752 2.56-0.9216 5.888-1.536 10.1376-1.024 8.0384 0.6656 10.5472 0.4096 11.264 0.256v-0.1024c5.7344 0 13.824 4.096 19.0464 13.9264 5.9904 11.264 7.3728 18.8416 6.656 30.208z" fill="#E7C193" p-id="2779"></path><path d="M208.2816 668.16s-2.048 0.6144-5.2736 1.2288c-3.1744 0.6144-7.4752 1.28-11.6736 1.024l-3.1744-0.3584c-1.024-0.1024-2.048-0.512-3.072-0.6144l-2.6624-0.8704-2.3552-1.024c-1.3824-0.9216-2.6624-1.4336-3.328-2.048-0.8192-0.512-1.2288-0.8704-1.2288-0.8704l1.024 1.1264c0.6656 0.7168 1.7408 1.536 3.072 2.56 1.536 0.8192 3.1744 1.792 5.12 2.4064l3.1744 0.7168c1.024 0.2048 2.2016 0.3584 3.328 0.4096 2.2016 0.1024 4.4544 0 6.5024-0.3584 2.048-0.256 3.9424-0.8192 5.4784-1.28 3.072-1.024 5.0176-2.048 5.0176-2.048z" fill="#E6AF75" p-id="2780"></path><path d="M151.04 678.0928c-2.048-0.512-7.168-4.7104-9.0112-6.3488l-1.1264-1.024-1.024-1.024c-5.12-5.12-9.216-12.1344-11.776-17.152l-0.256-0.6144c-1.024-2.816-1.6896-6.0416-1.3824-9.1136 0.2048-1.3312 0.512-2.56 0.9216-3.84l1.024-2.048c3.8912-5.632 11.52-7.0656 17.408-4.1984 0.6144 0.512 1.28 1.024 1.9456 1.6896 0.2048 1.024 0.512 2.1504 1.024 3.1744 2.3552 5.632 6.7584 14.848 11.9808 21.0944 0.3584 1.2288 3.072 4.9152 3.1744 5.888 1.2288 8.192-2.6624 16.1792-12.9536 13.5168z" fill="#E7C193" p-id="2781"></path><path d="M154.6752 678.5024c0.6656 0 1.3312 0 1.8944-0.2048a4.9152 4.9152 0 0 0 1.7408-0.512c2.3552-0.9216 3.9424-2.9696 4.608-5.2736 0.512-1.1264 0.512-2.3552 0.6656-3.584 0-1.1776 0-2.304-0.1024-3.584 0-0.7168-0.1024-0.9216-0.512-1.536l-0.8704-1.536c-0.6656-1.024-1.3312-2.048-1.8944-3.4304l0.1024 0.3072c-2.9696-3.584-5.4272-7.68-7.5264-11.776l-3.072-6.2464-1.28-3.1744c-0.512-1.1264-0.8192-2.2528-1.024-3.4816l0.1536 0.3072-1.8944-1.6384h0.1024c-3.584-1.792-8.192-2.048-12.032-0.2048-1.8944 0.8704-3.584 2.304-4.7104 3.9936-1.1776 1.6896-1.6896 3.84-2.048 5.888 0 1.792 0.1536 3.584 0.6144 5.4272 0.1536 0.9216 0.4096 1.792 0.8192 2.6624 0.256 0.9216 0.6144 1.536 1.024 2.4576 1.8432 3.2768 3.6864 6.5024 5.7344 9.5744 1.024 1.536 2.1504 3.072 3.2768 4.5056 1.1776 1.4336 2.3552 2.8672 3.7376 4.096 1.3824 1.2288 2.8672 2.4064 4.3008 3.584 1.536 1.024 2.9696 2.2528 4.7104 2.9696 1.1776 0.256 2.4064 0.512 3.584 0.512z m-8.448-3.2768c-1.536-1.1264-2.9696-2.304-4.4032-3.4816-1.536-1.1776-2.8672-2.56-4.096-3.84-1.3312-1.4336-2.56-2.8672-3.6864-4.352-2.2528-3.072-4.1984-6.2976-5.888-9.728-0.512-0.7168-0.9216-1.7408-1.1264-2.56-0.256-0.9216-0.512-1.8432-0.6144-2.816-0.4096-1.8944-0.4096-3.84-0.256-5.7344 0.512-2.048 0.9216-4.2496 2.2528-6.144 1.3312-1.6384 2.9696-3.1744 4.9152-4.096 3.8912-1.9456 8.704-2.048 12.6976-0.2048h0.1024c0.768 0.512 1.536 1.024 2.1504 1.6896l0.1024 0.1024v0.1536c0.3072 1.024 0.6656 2.1504 1.1264 3.1744l1.4336 3.072 3.072 6.144c1.1776 2.048 2.304 3.9936 3.584 5.9392 1.1264 1.9456 2.4576 3.7888 3.8912 5.5296l0.1024 0.1024v0.2048c0.3584 0.8704 1.1264 2.048 1.7408 3.072l0.9216 1.6896c0.3584 0.512 0.512 1.536 0.512 2.048 0.3072 2.56 0 5.12-1.024 7.5776-0.8704 2.4576-2.7648 4.608-5.12 5.376l-1.8944 0.512c-0.6656 0.1024-1.3312 0-1.9456 0-1.28 0-2.56-0.2048-3.7376-0.512-1.792-0.6144-3.328-1.792-4.864-2.9184z" fill="#E6AF75" p-id="2782"></path><path d="M134.0416 689.92c-4.4544-1.4336-12.1344-8.704-16.0256-13.4656l-2.7136-4.096c-2.4064-3.9424-3.584-7.8336-3.6864-11.6224 0.1024-0.8192 0.2048-1.536 0.4096-2.3552l0.3584-1.024c2.3552-4.9664 8.3968-7.5776 13.5168-6.656l0.6656 0.256c2.56 4.9664 6.656 12.032 11.776 17.152l1.024 1.024 1.1264 1.024c0.768 1.9456 3.7376 6.4 4.4032 7.68 3.1744 6.2464-2.9184 14.6432-10.9056 12.032z" fill="#E7C193" p-id="2783"></path><path d="M137.5232 690.176c1.2288-0.1536 2.4064-0.512 3.4304-1.1776 2.048-1.1776 3.4816-3.328 3.9936-5.632 0.3072-1.1264 0.256-2.304 0-3.3792 0-0.512-0.256-1.024-0.512-1.536-0.2048-0.512-0.6144-1.024-0.8704-1.536-1.3312-2.048-2.6624-4.096-3.7888-6.5024l0.1536 0.3072c-1.536-1.28-2.9696-2.816-4.3008-4.3008-1.3312-1.536-2.56-3.1744-3.584-4.864-2.3552-3.2256-4.2496-6.8096-5.9904-10.3424l0.3072 0.2048c-2.816-0.768-5.8368-0.512-8.4992 0.768-1.3312 0.6656-2.56 1.536-3.584 2.56-0.9216 1.024-1.7408 2.3552-2.1504 3.7376-0.2048 0.7168-0.3072 1.536-0.3584 2.2528 0.1536 2.7648 1.024 5.4784 2.2016 8.0384 0.256 0.7168 0.6144 1.28 0.9216 1.9456l0.512 0.9216 0.6144 0.8704 2.3552 3.584c2.048 2.6624 4.4032 5.3248 6.9632 7.68 1.28 1.28 2.56 2.4576 3.9936 3.4816 1.3824 1.024 2.8672 2.048 4.5056 2.6624 1.1776 0.3072 2.4064 0.512 3.584 0.3584z m-8.192-2.816c-1.536-1.024-2.9184-2.048-4.2496-3.1744-2.7136-2.304-5.3248-4.608-7.68-7.424-0.768-1.2288-1.536-2.4064-2.4064-3.584-0.1536-0.256-0.4096-0.6656-0.512-1.024l-0.6144-0.9216c-0.3072-0.6656-0.6656-1.3312-0.9216-2.048-1.1776-2.6624-1.792-5.632-1.7408-8.5504l0.4096-2.4064c1.1264-2.8672 3.4304-5.12 6.144-6.5536 2.6624-1.4336 5.888-1.8944 8.8576-1.2288h0.256l0.1024 0.256c1.8944 3.4304 3.9936 6.7584 6.2464 9.984 1.1264 1.6384 2.3552 3.1744 3.584 4.608 1.3824 1.536 2.56 2.9184 4.096 4.1984h0.1536l0.1024 0.3072c0.9216 2.048 2.3552 4.096 3.584 6.2976l0.8192 1.7408c0.256 0.512 0.512 1.1264 0.512 1.8432 0.2048 0.6656 0.1536 1.3312 0.1536 2.048 0 0.512-0.1536 1.2288-0.3584 1.8432-0.8192 2.4576-2.56 4.608-4.7616 5.7344-1.1264 0.6144-2.3552 1.024-3.584 1.024-1.2288 0.1536-2.56-0.1536-3.6864-0.512-1.6384-0.512-3.1744-1.536-4.608-2.56z" fill="#E6AF75" p-id="2784"></path><path d="M173.7216 652.1856s-4.352 6.144 1.8432 12.4416c-2.56 1.2288-5.632 1.2288-9.0112-0.512-2.2528-1.2288-4.4544-3.2256-6.5024-5.7344-5.2736-6.2976-9.6256-15.5136-12.0832-21.0944-0.3584-1.024-0.6656-2.048-0.8704-3.072l-0.1024-0.6144h0.1024c-1.536-11.4688 10.8544-18.944 19.968-15.5136 2.1504 1.28 4.096 3.328 5.9392 5.888l0.9216 1.4336c3.6864 5.9392 6.3488 13.9264 7.68 20.224-6.0416 2.2016-7.8336 6.656-7.8336 6.656z" fill="#E7C193" p-id="2785"></path><path d="M175.104 650.0352c0.512-0.6656 1.024-1.3312 1.7408-1.8944 0.6656-0.6656 1.4336-1.024 2.2016-1.536 0.7168-0.512 1.536-0.8704 2.3552-1.28l-0.2048 0.3072-1.536-5.12-1.792-5.12-2.1504-4.9152-2.56-4.608c-0.9216-1.536-1.8432-2.816-2.9696-3.9936-0.512-0.6144-1.1264-1.1776-1.7408-1.6896-0.512-0.512-1.2288-0.8704-1.8944-1.3824h0.1024c-1.024-0.3072-2.2528-0.6144-3.4304-0.7168-1.1776 0-2.3552 0-3.584 0.2048-2.304 0.4096-4.608 1.3312-6.5536 2.7136s-3.584 3.2256-4.608 5.4784c-0.2048 0.512-0.512 1.024-0.6656 1.6896-0.1024 0.512-0.3584 1.1264-0.4096 1.792-0.2048 1.1776-0.1536 2.4064-0.1024 3.584v0.8192l-0.512-0.512h-0.1024l0.512-0.256c0.1536 0.8704 0.512 1.8432 0.768 2.7648 0.3072 0.8704 0.7168 1.6896 1.1264 2.56 0.7168 1.792 1.536 3.584 2.4576 5.2224 0.9216 1.6896 1.792 3.3792 2.8672 5.0176 1.024 1.536 1.8944 3.2768 3.072 4.7616l1.792 2.304c0.6144 0.7168 1.1776 1.6384 1.792 2.2528 1.2288 1.4336 2.56 2.7136 4.096 3.84 0.6656 0.512 1.536 1.1776 2.304 1.4336 0.8704 0.3072 1.6896 0.8704 2.56 0.9216l1.3824 0.256h1.3312c1.024 0 1.792-0.4096 2.6624-0.512l-0.1024 0.512-1.024-1.3824c-0.3072-0.512-0.768-0.8192-1.024-1.4336l-0.6144-1.536c-0.2048-0.512-0.1536-1.1776-0.3072-1.7408a4.63872 4.63872 0 0 1-0.1024-1.6896c0-0.6144 0-1.1776 0.2048-1.6896 0.2048-1.1776 0.7168-2.2016 1.28-3.1744 0.4096-0.8192 0.9216-1.536 1.536-2.2528z m-2.56 5.4272c-0.1024 0.512-0.1536 1.1264-0.1536 1.6896 0 0.512 0 1.1264 0.1536 1.6384s0.1536 1.1264 0.4096 1.536l0.768 1.536c0.2048 0.512 0.6656 0.8704 1.024 1.3312l1.024 1.28 0.4096 0.4096-0.512 0.1536c-0.8704 0.256-1.792 0.8192-2.816 0.8192l-1.536 0.1024-1.536-0.1536c-1.024-0.1024-1.8944-0.6144-2.816-1.024-1.024-0.3072-1.7408-0.8192-2.56-1.3824-1.6896-1.1776-3.072-2.56-4.3008-4.096-0.7168-0.768-1.1776-1.536-1.7408-2.3552l-1.6896-2.4064c-1.1776-1.536-2.048-3.328-2.9696-5.0176-1.024-1.6896-1.7408-3.4304-2.56-5.12-1.024-1.7408-1.6896-3.584-2.56-5.2736-0.3584-0.8704-0.8192-1.7408-1.024-2.6624-0.3072-1.024-0.7168-1.792-0.8704-2.816l-0.1024-0.512 0.6656 0.256-0.512 0.256c-0.1536-1.28-0.256-2.56-0.1024-3.84 0-0.6144 0.256-1.2288 0.4096-1.8944 0.1024-0.6656 0.4096-1.1776 0.6144-1.8432 1.024-2.4064 2.6624-4.5056 4.7104-6.144 2.048-1.536 4.4544-2.6624 7.0656-3.1744 1.28-0.256 2.56-0.3072 3.8912-0.256s2.56 0.3584 3.8912 0.8192h0.1024c0.7168 0.512 1.536 0.8704 2.2016 1.536 0.7168 0.512 1.3824 1.1264 1.9456 1.792 1.1776 1.28 2.2016 2.7136 3.072 4.096l2.56 4.9152 2.048 5.12 1.536 5.3248 1.1264 5.376v0.1536l-0.1536 0.1024c-0.8192 0.3584-1.6384 0.6144-2.4064 1.024-0.7168 0.4096-1.536 0.8704-2.1504 1.4336-0.6656 0.512-1.28 1.1776-1.8432 1.792-0.512 0.6656-1.024 1.4336-1.4336 2.2016-0.512 1.024-1.024 2.048-1.2288 3.1744z" fill="#E6AF75" p-id="2786"></path><path d="M208.5888 645.4784c-0.6656 0.1024-8.96-0.4096-16.9984-1.1776-4.3008-0.3584-7.5776 0.1536-10.24 1.1264-1.1776-6.3488-5.632-16.896-9.3184-22.784-0.1536-3.1744-0.256-3.2768 0.8192-5.7344 1.792-4.096 7.168-6.0416 7.168-6.0416 2.048-0.8704 5.9904-1.8944 7.4752-1.6384 2.56 0.512 4.4032 1.024 6.144 2.3552 7.9872 6.144 15.1552 24.9856 14.9504 33.9456z" fill="#E7C193" p-id="2787"></path><path d="M208.5888 645.2736l-0.1024 0.1024c0-2.2016-0.512-4.3008-1.024-6.4512-0.512-2.1504-1.1264-4.1984-1.792-6.2464-0.768-2.048-1.536-4.096-2.4576-5.9904l-2.9696-5.632c-1.1264-1.8944-2.2528-3.7376-3.584-5.376-0.6656-0.8704-1.3824-1.536-2.048-2.3552-0.8192-0.768-1.536-1.536-2.4064-2.048-0.8704-0.512-1.8432-0.8192-2.8672-1.024-1.024-0.3072-2.1504-0.6656-3.072-0.6144-2.048 0.1536-4.096 0.768-6.144 1.536-2.304 0.8192-4.608 2.1504-6.144 4.096-0.768 0.9216-1.3312 2.2016-1.6896 3.3792-0.3584 1.1776-0.2048 2.56-0.1024 3.7888v-0.1024l3.072 5.376 2.6624 5.632c1.6896 3.7888 3.1744 7.68 4.096 11.776l-0.9216-0.512c1.024-0.256 2.2016-0.6144 3.3792-0.768 1.1264-0.256 2.3552-0.256 3.584-0.3584h1.6384l1.7408 0.1536 3.3792 0.512 6.8096 0.6144c2.304 0.2048 4.608 0.512 6.8608 0.512z m0 0.1536c-2.304 0.1024-4.608 0-6.8608-0.1024-2.2528 0-4.608-0.2048-6.8096-0.3584l-3.3792-0.2048c-1.024 0-2.2528-0.1536-3.3792 0-1.024 0-2.2016 0-3.2768 0.3072-1.024 0.1024-2.1504 0.512-3.1744 0.768l-0.7168 0.256-0.1536-0.7168c-0.4096-2.048-0.9216-3.9424-1.536-5.888l-2.048-5.7344c-1.536-3.84-3.1744-7.68-5.3248-11.1104v-0.1024c0-1.28-0.3072-2.56 0-3.9424 0.512-1.2288 0.8704-2.4064 1.6896-3.584 1.536-2.2016 3.7888-3.6864 6.2976-4.7616 2.048-0.8704 4.096-1.536 6.4512-1.7408 1.28-0.1024 2.304 0.256 3.3792 0.512 1.024 0.256 2.2016 0.6144 3.2256 1.1776 1.024 0.512 1.8432 1.3824 2.56 2.048 0.8704 0.8192 1.6896 1.6384 2.3552 2.56 1.3824 1.7408 2.56 3.584 3.6864 5.5296 2.1504 3.84 3.7376 7.9872 5.0176 12.1344 1.2288 4.2496 2.2528 8.6016 2.048 13.0048v0.1024h-0.1024V645.12l0.3072 0.1536h-0.3072z" fill="#E6AF75" p-id="2788"></path><path d="M190.208 669.0304c-0.7168 0-1.4336 0-2.1504-0.1536-2.2016-0.4096-4.1984-1.4336-5.2224-2.6624-0.6656-0.9216-0.6144-1.7408-0.4096-2.2528 0.4096-0.9216 1.536-1.536 3.072-1.6384 1.9456-0.1536 4.352 0.6656 5.376 1.8432 0.4096 0.512 0.512 1.1776 0.3072 1.7408-0.3072 0.6656-1.024 1.1264-2.1504 1.2288h-0.3072c-1.3312 0-2.6624-0.512-3.328-1.3312-0.4096-0.4096-0.512-0.9216-0.256-1.3824 0-0.2048 0.256-0.512 0.6144-0.6656h-0.1536c-1.024 0.1024-1.6896 0.512-1.8432 0.768 0 0.1536 0 0.4096 0.256 0.6656 1.1776 1.4336 4.3008 2.56 6.8608 2.304h0.512l0.256 0.6144c0 0.4096-0.2048 0.7168-0.512 0.8192h-0.8704z" fill="#F2C096" p-id="2789"></path><path d="M191.2832 670.6176c-0.8192 0-1.6896 0-2.56-0.256-4.352-0.768-8.2944-3.3792-8.8576-5.7344-0.2048-0.8192-0.1024-2.4064 2.4064-3.2768 0.9216-0.3072 1.8944-0.512 2.9184-0.512 3.3792 0 6.8096 1.7408 8.448 3.4304 1.3312 1.4336 1.1776 2.56 1.024 3.072-0.512 1.024-1.6896 1.536-3.7376 1.7408h-0.6144l-0.256-0.6144c0-0.512 0.3072-0.8704 0.7168-0.8704 2.048-0.1536 2.3552-0.7168 2.4576-0.8704 0.1024-0.1536 0-0.6656-0.7168-1.3824-1.3312-1.4336-4.4032-2.9184-7.3728-2.9184-0.8704 0-1.6384 0.1024-2.3552 0.3584-1.6896 0.512-1.536 1.3824-1.536 1.536 0.6144 2.4064 6.3488 5.4272 11.264 4.864h0.6144l0.2048 0.7168c0 0.1024 0 0.3072-0.1536 0.512l-0.2048 0.2048h-0.4096c-0.4096 0.1024-0.8704 0.1024-1.3312 0.1024z" fill="#F2C096" p-id="2790"></path><path d="M395.4176 833.6384s-105.1136-23.3472-156.16-124.2112l-52.5312 35.6352s77.312 117.8624 220.416 133.7344l-11.776-45.1584z" fill="#D0D1D3" p-id="2791"></path><path d="M239.36 709.4784l-52.5824 35.6352-10.5984-15.6672 52.6336-35.6352z" fill="#F1F1F1" p-id="2792"></path><path d="M228.7104 693.76s-3.072 2.56-7.7824 6.2464c-4.7104 3.584-11.264 8.192-17.7664 12.6976-6.656 4.4032-13.312 8.704-18.432 11.776-5.12 3.072-8.704 4.9152-8.704 4.9152s3.072-2.56 7.8848-6.144c4.7104-3.7376 11.264-8.2944 17.7152-12.8 6.656-4.4032 13.312-8.704 18.432-11.776 5.12-3.072 8.704-4.9152 8.704-4.9152z" fill="#040000" p-id="2793"></path><path d="M794.624 688.64c2.048 8.4992 3.6864 10.3424 7.168 15.4624 6.9632 8.3968 15.872 10.24 22.784 9.9328 8.96 16.1792 30.8224 19.6608 49.7664 8.0896 15.36-9.472 19.6608-28.8256 30.0032-44.544-3.8912 4.7616-8.8064 9.472-13.2096 10.9056-7.9872 2.56-12.3904-5.12-10.9568-11.9808 0.3584-1.4336 1.024-3.2768 1.7408-5.2736l1.1264-1.024 1.024-1.024c5.12-5.12 9.216-12.1344 11.776-17.1008l0.256-0.6656c1.1264-2.816 1.7408-6.0416 1.4336-9.0624v-0.1024c-0.1024-1.28-0.4096-2.56-1.024-3.7888-0.1536-0.7168-0.512-1.3824-1.024-2.048-3.7888-5.632-11.4176-7.0656-17.2544-4.1984-0.6144 0.512-1.3312 1.024-1.9456 1.6896 0-0.1536 0-0.3072 0.1024-0.512 1.536-11.4688-10.9056-18.944-19.968-15.5136-2.2016 1.2288-4.1984 3.2768-6.0416 5.8368-0.256 0.512-0.512 1.024-0.8704 1.4336-3.7888 5.9904-6.4512 13.9776-7.68 20.2752-2.56-0.9216-5.888-1.536-10.24-1.024-7.9872 0.6656-10.496 0.4096-11.1104 0.256v-0.1024c-5.8368 0-13.824 4.096-19.0976 13.9264-5.9904 11.264-7.3728 18.8416-6.656 30.208z" fill="#E7C193" p-id="2794"></path><path d="M815.616 668.16s2.1504 0.6144 5.376 1.2288c3.1744 0.6144 7.4752 1.28 11.6736 1.024l3.1744-0.3584c1.024-0.1024 2.048-0.512 2.9696-0.6144l2.7648-0.8704c0.8192-0.4096 1.536-0.768 2.3552-1.024 1.3824-0.9216 2.56-1.4336 3.328-2.048l1.2288-0.8704-1.024 1.1264c-0.6656 0.7168-1.7408 1.536-3.072 2.56-1.536 0.8192-3.1744 1.792-5.12 2.4064-1.024 0.2048-2.048 0.512-3.2256 0.7168-1.1264 0.2048-2.2528 0.3584-3.328 0.4096-2.2528 0.1024-4.4544 0-6.5024-0.3584-2.048-0.256-3.9424-0.8192-5.5296-1.28-3.072-1.024-5.12-2.048-5.12-2.048z" fill="#E6AF75" p-id="2795"></path><path d="M872.96 678.0928c2.048-0.512 7.168-4.7104 9.0112-6.3488l1.1264-1.024 1.024-1.024c5.12-5.12 9.216-12.1344 11.776-17.152 0 0 0-0.256 0.2048-0.6144 1.1264-2.816 1.7408-6.0416 1.4336-9.1136-0.2048-1.3312-0.512-2.56-0.9216-3.84-0.3072-0.7168-0.6656-1.3824-1.1264-2.048-3.7888-5.632-11.4176-7.0656-17.2544-4.1984-0.6656 0.512-1.3312 1.024-2.048 1.6896-0.1536 1.024-0.512 2.1504-0.9216 3.1744-2.4576 5.632-6.8096 14.848-12.0832 21.0944-0.3584 1.2288-3.072 4.9152-3.1744 5.888-1.2288 8.192 2.6624 16.1792 12.9536 13.5168z" fill="#E7C193" p-id="2796"></path><path d="M872.96 678.0416c1.7408-0.7168 3.2256-1.8944 4.7104-2.9696 1.536-1.1776 2.9184-2.3552 4.3008-3.584 1.4336-1.2288 2.56-2.6624 3.7888-4.096 1.1776-1.4336 2.2528-2.9696 3.2768-4.5056 2.048-3.072 3.9424-6.2976 5.632-9.5744 0.512-0.8192 0.8704-1.536 1.1776-2.4576 0.3584-0.8704 0.6144-1.7408 0.8192-2.56 0.512-1.8432 0.512-3.6864 0.512-5.5296-0.3072-2.048-0.768-4.096-1.9456-5.7856-1.2288-1.6896-2.816-3.072-4.7616-3.9936-3.7888-1.8432-8.3456-1.536-12.032 0.256h0.1024c-0.7168 0.512-1.3824 1.024-1.9456 1.6384l0.1536-0.4096c-0.256 1.2288-0.512 2.3552-1.024 3.4816-0.512 1.024-0.8704 2.1504-1.3824 3.1744-0.9216 2.1504-1.9456 4.1984-3.072 6.2464-2.048 4.096-4.608 8.192-7.5264 11.776l0.2048-0.3072c-0.512 1.4336-1.2288 2.3552-1.8944 3.4816l-1.024 1.536c-0.256 0.512-0.3072 0.768-0.4096 1.536-0.256 1.2288-0.256 2.3552-0.2048 3.584 0.1024 1.2288 0.256 2.4064 0.6656 3.584 0.6144 2.2528 2.2528 4.3008 4.5056 5.2224 0.512 0.3072 1.1264 0.512 1.792 0.512 0.512 0.2048 1.1776 0.1536 1.792 0.2048 1.28 0 2.4576-0.2048 3.6864-0.512z m0 0.1536c-1.1776 0.3072-2.4064 0.512-3.6864 0.512-0.6144 0-1.28 0-1.8432-0.1024-0.6656 0-1.28-0.2048-1.8432-0.512-2.4576-0.768-4.352-2.8672-5.2736-5.2736-1.024-2.304-1.28-5.0176-1.024-7.5264 0-0.512 0.2048-1.536 0.512-2.048l1.024-1.6384c0.512-1.024 1.3312-2.1504 1.6384-3.072l0.1024-0.1536v-0.1024c1.536-1.792 2.816-3.584 4.096-5.632 1.1264-1.8944 2.304-3.84 3.3792-5.8368 1.024-2.048 2.1504-4.096 3.072-6.144l1.536-3.072c0.4096-1.024 0.768-2.048 1.024-3.072v-0.256l0.1536-0.1024 2.048-1.6896h0.1024c4.096-1.8944 8.8576-1.792 12.8 0.1536 1.8944 0.9216 3.584 2.4576 4.8128 4.1984 1.3824 1.792 1.8432 3.9424 2.304 6.0416 0.1536 1.9456 0.1536 3.84-0.256 5.7344-0.1536 1.024-0.3584 1.8944-0.6656 2.816-0.2048 0.8704-0.7168 1.8944-1.1776 2.6624-1.6896 3.328-3.584 6.5536-5.888 9.6256-1.1264 1.536-2.3552 2.9184-3.584 4.352-1.3312 1.3312-2.6624 2.7136-4.096 3.8912l-4.4544 3.584c-1.536 1.024-3.072 2.2016-4.8128 2.8672z" fill="#E6AF75" p-id="2797"></path><path d="M889.9584 689.92c4.4544-1.4336 12.1344-8.704 16.0256-13.4656l2.7136-4.096c2.4064-3.9424 3.584-7.8336 3.6864-11.6224-0.1024-0.8192-0.2048-1.536-0.4096-2.3552l-0.3584-1.024c-2.3552-4.9664-8.3968-7.5776-13.5168-6.656l-0.6656 0.256c-2.56 4.9664-6.656 12.032-11.776 17.152l-1.024 1.024-1.1264 1.024c-0.768 1.9456-3.7376 6.4-4.4032 7.68-3.1744 6.2464 2.9184 14.6432 10.9056 12.032z" fill="#E7C193" p-id="2798"></path><path d="M890.0608 689.7664c1.6384-0.6144 3.072-1.536 4.5056-2.56s2.7136-2.2528 3.9936-3.4816c2.56-2.4064 4.864-5.12 7.0144-7.68l2.304-3.584 0.512-0.9216 0.512-0.9216 1.024-1.8944c1.2288-2.56 2.048-5.2224 2.2016-8.0384l-0.3584-2.2528c-0.512-1.3824-1.2288-2.6624-2.2016-3.7376-1.024-1.024-2.2528-1.8944-3.584-2.56-2.56-1.28-5.632-1.536-8.448-0.768l0.3584-0.256c-1.7408 3.584-3.584 7.168-5.9392 10.4448-1.024 1.7408-2.2528 3.328-3.584 4.9152-1.28 1.536-2.7648 3.072-4.2496 4.2496l0.2048-0.3584c-1.024 2.4064-2.4064 4.4544-3.7376 6.5024-0.256 0.512-0.6656 1.024-0.8704 1.536-0.256 0.512-0.512 1.024-0.512 1.536-0.256 1.1264-0.3072 2.304 0 3.4816 0.4096 2.2528 1.8944 4.352 3.9424 5.632 1.024 0.6144 2.2016 1.024 3.3792 1.024 1.2288 0.256 2.4576 0 3.584-0.3072z m0 0.1536c-1.1264 0.3072-2.4064 0.6144-3.584 0.512-1.28 0-2.56-0.512-3.584-1.024-2.304-1.1776-3.9936-3.2768-4.7616-5.7856-0.1536-0.6144-0.256-1.2288-0.3072-1.8944 0-0.6656 0-1.3312 0.1024-2.048 0.1024-0.6656 0.3072-1.2288 0.512-1.792 0.3072-0.7168 0.6144-1.1776 0.9216-1.7408 1.1776-2.1504 2.56-4.1984 3.584-6.2976v-0.2048l0.1536-0.1536c1.536-1.28 2.7648-2.6624 4.096-4.096 1.28-1.536 2.56-3.072 3.584-4.7104 2.304-3.2256 4.4032-6.5536 6.2976-10.0352l0.1024-0.256h0.256c2.9696-0.7168 6.144-0.2048 8.9088 1.1776 2.7136 1.3824 5.0176 3.6864 6.144 6.5536l0.4096 2.3552c0 2.9696-0.512 5.9392-1.6896 8.704l-1.024 1.9456-0.512 1.024-0.512 0.9216-2.56 3.584c-2.2528 2.7648-4.864 5.12-7.5264 7.424l-4.1984 3.2256c-1.536 1.024-3.072 1.9456-4.608 2.56z" fill="#E6AF75" p-id="2799"></path><path d="M850.2784 652.1856s4.352 6.144-1.8432 12.4416c2.56 1.2288 5.632 1.2288 9.0112-0.512 2.2528-1.2288 4.4544-3.2256 6.5024-5.7344 5.2224-6.2976 9.6256-15.5136 12.032-21.0944 0.512-1.024 0.768-2.048 1.024-3.072v-0.6144c1.536-11.4688-10.8544-18.944-19.968-15.5136-2.1504 1.28-4.096 3.328-5.9392 5.888l-0.9216 1.4336c-3.6864 5.9392-6.3488 13.9264-7.68 20.224 6.0416 2.2016 7.8336 6.656 7.8336 6.656z" fill="#E7C193" p-id="2800"></path><path d="M850.432 652.288c0.512 1.024 1.024 2.048 1.2288 3.072 0.1536 0.6144 0.2048 1.1776 0.2048 1.792 0 0.512 0 1.1264-0.1024 1.6896-0.1536 0.512-0.1024 1.1776-0.3584 1.6896l-0.7168 1.6384c-0.2048 0.6144-0.6656 1.024-1.024 1.536l-1.024 1.3312v-0.6144c0.8192 0.2048 1.6384 0.6656 2.56 0.6144h1.3824l1.3824-0.256c0.8704 0 1.6896-0.6144 2.56-0.9216 0.768-0.256 1.6384-0.9216 2.3552-1.4336 1.4336-1.1264 2.816-2.4576 4.096-3.84l1.6896-2.2528 1.7408-2.304c1.1776-1.536 2.048-3.1744 3.072-4.7616 1.024-1.6384 1.9456-3.328 2.8672-5.0176 0.8704-1.6896 1.7408-3.4304 2.56-5.2224 0.3072-0.8704 0.768-1.6896 1.024-2.6624 0.1536-0.9216 0.512-1.8432 0.6656-2.7136l0.512 0.256-0.6144 0.512 0.1024-0.7168c0.1024-1.2288 0.1536-2.4576 0-3.6864-0.1024-0.6144-0.3072-1.1776-0.512-1.792 0-0.6144-0.3584-1.1776-0.512-1.7408-1.024-2.2016-2.7136-4.096-4.7104-5.4784-1.9456-1.4336-4.1984-2.3552-6.656-2.816a19.6096 19.6096 0 0 0-3.4816-0.1536c-1.1776 0.1024-2.3552 0.3584-3.4304 0.768h0.1024c-0.6656 0.4096-1.3824 0.768-1.9456 1.3312-0.6656 0.512-1.2288 1.024-1.792 1.6896-1.1264 1.1776-2.048 2.4576-2.9696 3.9424v0.1024-0.1024l-2.56 4.608-2.1504 4.9664-1.8432 5.12-1.536 5.12-0.1536-0.256c0.8192 0.4096 1.6384 0.7168 2.4064 1.1776 0.7168 0.512 1.536 1.024 2.1504 1.536 0.6656 0.512 1.28 1.2288 1.8432 1.9456 0.512 0.7168 1.024 1.4336 1.3824 2.2528z m-0.2048 0c-0.3584-0.7168-0.8704-1.4336-1.4336-2.048-0.512-0.7168-1.1776-1.3312-1.8432-1.8944-0.6656-0.512-1.4336-1.024-2.1504-1.4336-0.768-0.4096-1.6384-0.6656-2.4064-1.024h-0.2048v-0.3072l1.1264-5.376c0.512-1.7408 0.9216-3.584 1.536-5.2736l2.048-5.12 2.56-4.864v-0.1024h0.1024-0.1024c0.8704-1.3312 1.8944-2.816 3.072-4.096 0.512-0.6656 1.2288-1.2288 1.8944-1.792 0.6144-0.6144 1.4336-1.024 2.1504-1.536h0.1024c1.28-0.512 2.56-0.768 3.8912-0.8192 1.3312-0.1024 2.6624 0 3.9424 0.2048 2.56 0.512 4.9664 1.6384 7.0144 3.2256s3.7376 3.7376 4.7616 6.144c0.1536 0.6144 0.512 1.1776 0.6144 1.792 0 0.6656 0.256 1.28 0.3072 1.9456 0.1536 1.28 0.1024 2.56 0 3.84l-0.6144-0.3072 0.6656-0.2048v0.512c-0.256 1.024-0.6144 1.8432-0.8704 2.7648-0.256 0.9216-0.768 1.8432-1.1264 2.6624-0.8704 1.792-1.536 3.584-2.4576 5.2736-0.9216 1.6896-1.6896 3.4816-2.6624 5.12-1.024 1.6896-1.792 3.4816-2.9184 5.0176l-1.536 2.4064c-0.6144 0.8192-1.024 1.536-1.8432 2.3552-1.2288 1.536-2.56 2.9184-4.2496 4.096-0.8192 0.512-1.536 1.024-2.56 1.536-0.9216 0.256-1.8432 0.8192-2.8672 0.8704l-1.536 0.2048c-0.512 0-1.024-0.1536-1.536-0.2048-1.024 0-1.8944-0.512-2.816-0.8192l-0.512-0.1536 0.3584-0.512 1.024-1.1776c0.3584-0.512 0.8704-0.8192 1.024-1.3312l0.768-1.536c0.256-0.512 0.3072-1.024 0.4096-1.536 0.1536-0.512 0.2048-1.1264 0.1536-1.6896 0-0.512 0-1.1264-0.1536-1.6384-0.2048-1.1776-0.6656-2.2016-1.2288-3.1744z" fill="#E6AF75" p-id="2801"></path><path d="M815.4112 645.4784c0.6144 0.1024 8.96-0.4096 16.9984-1.1776 4.2496-0.3584 7.5776 0.1536 10.1376 1.1264 1.28-6.3488 5.632-16.896 9.3696-22.784 0.1536-3.1744 0.2048-3.2768-0.8192-5.7344-1.792-4.096-7.168-6.0416-7.168-6.0416-2.048-0.8704-5.9904-1.8944-7.424-1.6384-2.56 0.512-4.5056 1.024-6.2464 2.3552-8.0384 6.144-15.2064 24.9856-14.9504 33.9456z" fill="#E7C193" p-id="2802"></path><path d="M815.4112 645.2736c2.2528 0 4.5568-0.3584 6.8096-0.512l6.656-0.7168 3.4816-0.4096 1.7408-0.1024c0.512 0 1.024-0.1024 1.6896 0 1.1776 0 2.3552 0 3.584 0.256 1.1264 0.1536 2.2528 0.512 3.3792 0.8192l-0.8192 0.512c0.8704-4.096 2.304-7.9872 3.9936-11.776 0.8704-1.8944 1.792-3.7376 2.7648-5.632 0.9216-1.7408 1.9456-3.584 3.072-5.3248v0.1024c0-1.28 0.1536-2.56-0.1536-3.7888-0.4096-1.1776-0.9216-2.4576-1.6896-3.3792-1.536-1.9456-3.84-3.2768-6.144-4.096-2.048-0.768-4.096-1.3312-6.144-1.536-0.9216 0-2.048 0.3072-3.072 0.512-1.024 0.3072-1.9456 0.6656-2.816 1.1776-0.8704 0.512-1.536 1.28-2.4064 2.048-0.7168 0.7168-1.4336 1.4336-2.048 2.304-1.3312 1.6384-2.56 3.4816-3.584 5.3248-1.024 1.8432-2.048 3.7376-2.9184 5.632-0.8704 2.048-1.6896 4.096-2.4064 6.0416-0.7168 2.048-1.3824 4.096-1.8432 6.144-0.512 2.2016-0.9216 4.3008-1.024 6.5024l-0.1024-0.1024z m-0.3072 0.1024l0.3072-0.1024s-0.1024-0.1536 0 0.1536h-0.1024v-0.1024c-0.2048-4.352 0.768-8.704 2.048-12.9024 1.28-4.1984 2.8672-8.3456 5.0176-12.1856 1.024-1.8944 2.2528-3.7888 3.6864-5.5296 0.6656-0.9216 1.536-1.6896 2.304-2.56 0.7168-0.6656 1.536-1.4336 2.56-2.048 1.024-0.512 2.2016-0.9216 3.2768-1.2288 1.024-0.2048 2.1504-0.512 3.4304-0.512 2.3552 0.3072 4.4032 1.024 6.5536 1.8432 2.4064 1.024 4.7104 2.56 6.2976 4.7104 0.8704 1.1776 1.28 2.4064 1.6896 3.6864 0.3072 1.3312 0 2.6624 0 3.9424-2.048 3.584-3.7888 7.3216-5.2736 11.1616l-2.048 5.7856c-0.6144 2.048-1.1264 3.9936-1.536 5.9392l-0.2048 0.7168-0.7168-0.2048c-1.024-0.3072-2.048-0.7168-3.2256-0.8704-1.1264-0.3072-2.2016-0.3072-3.2768-0.4096h-3.4304l-3.4304 0.256c-2.304 0.1536-4.608 0.3072-6.8608 0.3584-2.304 0.1024-4.608 0.2048-6.8608 0.1024h-0.3072z" fill="#E6AF75" p-id="2803"></path><path d="M833.792 669.0304h-0.7168a0.9216 0.9216 0 0 1-0.6144-0.6144v-0.1536l0.1024-0.6144 0.7168-0.1024h0.5632c2.4064 0 5.12-1.024 6.144-2.2528 0.2048-0.2048 0.3584-0.512 0.256-0.768 0-0.3584-0.6656-0.7168-1.7408-0.8192h-0.2048c0.4096 0.2048 0.6144 0.512 0.7168 0.7168 0.2048 0.4096 0.1024 0.9216-0.3072 1.3824-0.6656 0.8192-2.2016 1.4336-3.584 1.28-1.1776-0.1024-1.9456-0.512-2.2016-1.2288-0.256-0.512-0.1536-1.1776 0.3072-1.6896 1.024-1.2288 3.3792-2.048 5.376-1.8944 1.536 0.1536 2.6624 0.7168 3.072 1.6384 0.1536 0.4096 0.3072 1.28-0.512 2.2528-1.024 1.2288-2.9696 2.2528-5.12 2.6624l-2.2016 0.1536z" fill="#F2C096" p-id="2804"></path><path d="M832.7168 670.6176h-1.3824l-0.256-0.1024-0.512-0.512 0.1024-0.3584c0-0.3072 0.3072-0.6144 0.7168-0.6144h1.3824c4.608 0 9.472-2.6624 9.984-4.7616 0-0.3072 0.1536-1.024-1.536-1.6384-0.7168-0.256-1.536-0.3584-2.3552-0.3584-2.9696 0-6.0416 1.536-7.424 2.9184-0.7168 0.7168-0.8704 1.2288-0.768 1.4336 0.1536 0.4096 0.8704 0.8192 2.4576 0.9216h0.512l0.2048 0.7168c0 0.4096-0.3584 0.768-0.768 0.768-2.048-0.1536-3.328-0.768-3.7888-1.792-0.3072-0.9216 0-1.9456 1.024-3.072 1.6384-1.6384 5.12-3.328 8.448-3.328 1.024 0 2.048 0.1536 2.9184 0.512 2.56 0.8192 2.56 2.4064 2.4064 3.2768-0.512 2.4064-4.5056 5.0176-8.8064 5.7856-0.9216 0.2048-1.792 0.256-2.56 0.256z" fill="#F2C096" p-id="2805"></path><path d="M628.5824 833.6384s105.1136-23.3472 156.16-124.2112l52.5312 35.6352s-77.312 117.8624-220.416 133.7344l11.776-45.1584z" fill="#D0D1D3" p-id="2806"></path><path d="M795.2896 693.76l52.5824 35.6352-10.5984 15.616-52.5824-35.584z" fill="#F1F1F1" p-id="2807"></path><path d="M795.2896 693.76s3.584 1.8944 8.704 4.9152c5.12 3.072 11.776 7.3728 18.432 11.776 6.4512 4.5056 12.9536 9.0624 17.664 12.8 4.7616 3.584 7.7824 6.144 7.7824 6.144s-3.584-1.8432-8.704-4.9152-11.776-7.3728-18.3296-11.776c-6.5536-4.5056-13.056-9.0624-17.7664-12.6976-4.7616-3.584-7.7824-6.2464-7.7824-6.2464z" fill="#040000" p-id="2808"></path><path d="M647.68 957.5936c0-77.312-2.304-124.1088-39.7824-139.4688-17.5616-7.168-21.0944-3.072-65.536-3.072h-37.7856c-64.2048 0-68.096-4.608-89.9072 3.7888-34.56 13.312-41.472 64.7168-41.6256 137.728 43.8784 13.6704 90.5216 20.992 138.9056 20.992 47.2064 0 92.7744-6.9632 135.68-19.968z" fill="#EC8F26" p-id="2809"></path><path d="M647.68 957.5936c-43.008 13.056-88.576 20.0704-135.68 20.0704-48.3328 0-94.976-7.3728-138.8544-20.992" fill="#F1F1F1" p-id="2810"></path><path d="M647.68 957.5936v-2.9184h-35.328c6.656-92.672-12.8-147.5584-13.824-150.016l-30.9248 11.264c0.2048 0.512 18.2784 52.224 11.6736 138.752H442.1632c-6.5536-86.528 11.52-138.1376 11.776-138.752l-15.5648-5.632-14.7456-5.3248-0.768-0.3072-0.256 0.512c-2.2528 6.5024-19.968 60.6208-13.568 149.504h-35.9424v1.9456c43.8784 13.6704 90.4704 20.992 138.8544 20.992 47.104 0 92.672-6.9632 135.68-19.968z" fill="#F1F1F1" p-id="2811"></path><path d="M506.0608 854.528l43.3152 46.08 77.568-66.8672" fill="#252324" p-id="2812"></path><path d="M506.0608 854.528l43.3152 41.5744 79.7696-64.1024" fill="#D0D1D3" p-id="2813"></path><path d="M515.2768 854.528l-43.3152 46.08-77.568-66.8672" fill="#252324" p-id="2814"></path><path d="M515.2768 854.528l-43.52 41.6768-79.9744-64.3072" fill="#D0D1D3" p-id="2815"></path><path d="M243.7632 564.224a290.0992 266.3936 90 1 0 532.7872 0 290.0992 266.3936 90 1 0-532.7872 0Z" fill="#E6C69A" p-id="2816"></path><path d="M750.9504 609.28c53.4528-81.5104 59.904-132.096 59.904-132.096l22.528 5.9392c1.2288-105.984-33.6896-163.6352-33.6896-163.6352l36.352-6.3488c-24.4736-96.768-111.7184-115.456-111.7184-115.456l34.9696-24.064c-61.44-44.9536-156.5184-43.4176-156.5184-43.4176l5.632-40.96c-92.9792-6.912-172.3904 41.6768-172.3904 41.6768l-8.0896-46.592c-95.232 46.08-153.7024 122.5216-153.7024 122.5216l-14.6432-14.4384c-45.3632 73.728-45.056 167.936-45.056 167.936l-28.928-5.8368C196.864 518.144 267.264 609.28 267.264 609.28s-9.8304-140.6464 63.232-177.152c29.4912-14.848 76.4928 6.5536 180.3776 6.5536 116.3776 0 163.328-17.0496 189.952 3.7888 25.088 19.8656 56.832 49.5616 50.176 166.912z" fill="#39291C" p-id="2817"></path><path d="M750.9504 609.28c5.8368-10.6496 11.6736-21.3504 16.9984-32.256 2.56-5.4784 5.2736-10.8544 7.68-16.384 2.56-5.5296 4.9152-11.0592 7.168-16.6912 4.608-11.1104 8.704-22.4256 12.288-33.792 1.6384-5.7856 3.2256-11.52 4.608-17.2544 0.6656-2.8672 1.2288-5.7344 1.792-8.5504 0.512-2.7648 1.024-5.888 1.28-8.192l0.7168-8.9088 9.472 2.048 22.7328 4.9152-11.5712 8.8064c-0.4096-6.912-0.6656-13.824-1.1776-20.6336-0.768-6.8096-1.1264-13.6704-2.1504-20.48-1.024-6.7584-1.792-13.5168-3.072-20.224-1.024-6.7584-2.56-13.4144-3.8912-20.0704-1.6384-6.656-3.072-13.2096-5.12-19.712-1.792-6.5024-3.9424-12.9024-6.144-19.2-2.3552-6.2976-4.8128-12.544-7.5776-18.5344-1.3824-2.9696-2.8672-5.888-4.3008-8.704-1.4336-2.816-3.1744-5.9904-4.4032-7.8336l-12.0832-18.6368 22.6816-4.608 30.0032-6.2464-13.1584 20.2752c-1.792-6.0416-3.6864-12.032-6.0416-17.7664-2.304-5.8368-4.9664-11.4176-7.8848-16.7936-5.888-10.752-13.056-20.736-21.3504-29.4912-8.192-8.8576-17.7664-16.384-27.8528-22.8352-5.12-3.1744-10.3424-6.144-15.7696-8.5504-2.7136-1.2288-5.4272-2.3552-8.192-3.328-2.4064-1.024-5.7856-2.048-7.168-2.3552l-43.4176-9.984 36.7616-26.112 34.6112-24.576-0.4096 33.792c-19.456-13.6704-43.3152-22.6304-68.096-28.5696-12.3904-3.072-25.088-5.3248-37.888-6.8608a356.1984 356.1984 0 0 0-19.3024-1.8432l-9.6256-0.512c-3.072 0-6.656-0.1536-9.0624-0.1024l-25.9072 0.4096 3.4304-25.8048 5.4784-40.96 20.6336 25.6c-6.8096-0.1024-13.568-0.8192-20.48-0.4096l-10.24 0.3584-10.24 1.024c-3.3792 0.2048-6.8096 0.6656-10.24 1.2288l-10.24 1.6384-10.24 2.048c-3.4304 0.512-6.7584 1.536-10.1376 2.3552-3.4304 0.768-6.8096 1.6384-10.1376 2.6624-3.3792 1.024-6.7584 1.8944-10.0352 3.072-6.656 2.048-13.312 4.4544-19.8144 6.9632-6.4512 2.56-12.9536 5.3248-19.2512 8.2944l-9.3184 4.608c-2.9696 1.536-6.2464 3.2768-8.4992 4.608l-28.672 16.384-5.3248-31.744-7.68-46.7456 31.4368 16.0768c-6.912 3.584-14.0288 6.8096-20.7872 10.752-6.8096 3.84-13.6192 7.68-20.2752 11.8784-6.7584 3.9936-13.1584 8.5504-19.712 12.9024-6.4512 4.608-12.9536 9.1136-19.0976 14.08-12.4928 9.728-24.576 19.968-36.0448 30.9248-5.7344 5.4272-11.264 11.0592-16.7424 16.7424L296.96 210.1248c-2.56 2.816-5.2224 5.9392-7.2704 8.4992l-14.2336 17.2544-14.848-15.2064-14.336-14.6944 29.4912-3.584c-3.328 5.8368-7.168 11.3664-10.24 17.5104l-4.608 9.1136-4.1984 9.3696c-1.536 3.072-2.6624 6.3488-3.9424 9.5744-1.1776 3.2256-2.56 6.4-3.584 9.728-2.304 6.5536-4.5056 13.1584-6.2976 19.968-2.048 6.656-3.584 13.5168-5.12 20.3776-1.536 6.8608-2.8672 13.824-4.096 20.736-1.024 6.9632-2.2016 13.9264-3.072 20.992-0.3584 3.4304-0.768 6.912-1.024 10.3936-0.3584 3.4304-0.6144 7.168-0.768 10.24l-1.024 17.7664-16.128-3.84-28.672-6.8096 15.7696-13.824 0.9216 16.4864c0.512 5.4784 0.512 11.008 1.1776 16.4864 1.3312 10.9568 2.048 22.016 3.7376 33.024l2.3552 16.4864 3.072 16.2816c1.024 5.4784 2.048 10.9056 3.4304 16.384l3.7888 16.1792 4.4544 16.0768c1.4336 5.4272 3.328 10.752 4.9152 16.0256 1.536 5.4272 3.4304 10.752 5.3248 15.872 1.8432 5.376 3.7888 10.5984 5.9392 15.7696 4.096 10.4448 8.5504 20.736 13.312 30.8736 4.9152 10.1376 10.1376 20.1728 16.128 29.696-7.2704-8.5504-13.7216-17.92-19.968-27.4432-6.0416-9.5744-11.9296-19.456-17.1008-29.5424-2.7648-5.0176-5.2736-10.0864-7.68-15.2576-2.56-5.12-5.0176-10.3424-7.168-15.616-2.2528-5.2224-4.7104-10.4448-6.656-15.7696l-6.144-16.0768-5.4784-16.2816c-1.8944-5.4272-3.584-10.9056-5.12-16.4864L187.392 440.32l-3.8912-16.7936c-1.3824-5.632-2.6624-11.2128-3.584-16.896l-2.9696-16.896c-1.1264-5.7344-1.536-11.4688-2.4064-17.152l-2.2016-17.152-2.1504-16.896 17.92 3.072 29.184 4.7616-17.0496 14.0288c-0.1024-4.3008 0-7.9872 0-11.8784 0-3.7888 0.256-7.68 0.4096-11.4176 0.4096-7.68 1.024-15.2064 1.8432-22.7328 0.8704-7.5264 1.8944-15.0528 3.2256-22.528 1.2288-7.5264 2.6624-15.0528 4.4032-22.528 1.6384-7.424 3.6864-14.848 5.8368-22.272 0.9216-3.7376 2.3552-7.3216 3.4816-11.008 1.2288-3.6864 2.3552-7.3728 3.84-10.9568l4.2496-10.9056 4.864-10.752c3.072-7.168 7.2704-13.9776 10.9056-20.992l10.9568-21.0944 18.5856 17.5616 14.9504 14.08-29.0816 2.048c3.072-3.8912 5.632-7.168 8.4992-10.496 2.7648-3.3792 5.632-6.656 8.4992-9.8304 5.7344-6.4 11.6224-12.6464 17.7152-18.7392 12.032-12.288 24.7296-23.8592 38.0416-34.816 6.5536-5.5296 13.5168-10.6496 20.3264-15.872 7.0656-5.12 13.9264-10.24 21.248-14.848 7.168-4.9152 14.592-9.4208 22.1696-13.7216 7.424-4.4544 15.36-8.192 23.04-12.288l26.0096-14.08 5.4272 30.208 8.4992 46.592-33.9968-15.36c4.2496-2.4576 7.4752-4.3008 11.1616-6.144 3.584-1.9456 7.168-3.7376 10.8544-5.4784 7.168-3.4304 14.5408-6.5536 22.016-9.5744 7.3728-2.9184 14.848-5.632 22.4256-8.0896 3.7888-1.3312 7.68-2.3552 11.4688-3.584 3.7888-1.1264 7.68-2.048 11.5712-3.072 3.8912-0.9216 7.68-2.048 11.776-2.816l11.776-2.3552c3.9424-0.7168 7.936-1.1776 11.9296-1.792 3.9936-0.6144 7.9872-1.024 12.0832-1.3824l12.0832-1.024 12.1856-0.256c8.0896-0.4096 16.384 0.512 24.4736 0.6656l24.2176 0.6656-3.584 24.8832-5.888 40.96-22.528-25.3952c4.4032 0 7.7824 0.1024 11.5712 0.3072l11.008 0.6144c7.3216 0.512 14.5408 1.3312 21.76 2.2528 14.4384 1.8944 28.8256 4.608 43.008 8.192 14.336 3.7376 28.416 8.6016 42.1888 14.6944 13.824 6.144 27.136 13.6192 39.7312 22.9376l23.808 17.664-24.2688 16.1792-35.328 23.552-6.656-36.096c5.2736 1.3824 8.3968 2.56 12.288 4.096 3.584 1.536 7.168 3.1744 10.752 4.9152 6.912 3.4304 13.568 7.3728 19.968 11.6736 12.8 8.6016 24.2688 19.0464 34.2016 30.72 9.9328 11.6224 18.2784 24.576 24.832 38.2464 3.2768 6.8608 6.144 13.824 8.5504 20.992 2.4576 7.0144 4.4032 14.2336 6.144 21.504l4.2496 17.664-17.408 2.4576-30.3104 4.352 10.6496-23.296c2.304 4.1984 3.6864 7.3216 5.2736 10.9568 1.536 3.4816 2.9696 6.9632 4.2496 10.496 2.56 7.0144 4.864 14.0288 6.912 21.0944 2.048 7.168 3.84 14.1824 5.3248 21.3504 1.6384 7.168 2.7648 14.336 3.9936 21.504 1.024 7.168 2.048 14.4384 2.7136 21.6576 0.8192 7.168 1.2288 14.336 1.536 21.6064 0.512 7.168 0.2048 14.4384 0.3584 21.6064-0.1024 7.168-0.4096 14.336-0.6144 21.504l-0.3584 12.288-11.1616-3.4304-22.272-6.9632 10.24-6.8608c-0.7168 3.7376-1.536 6.5536-2.4064 9.728-0.8704 3.072-1.792 6.144-2.816 9.0624-1.9456 5.9392-4.3008 11.776-6.656 17.5104-4.864 11.3664-10.3424 22.4256-16.1792 33.28-5.8368 10.8544-12.288 21.2992-18.944 31.5392-6.7584 10.24-13.824 20.224-21.1456 29.952z" fill="#472D1C" p-id="2818"></path><path d="M784.64 520.704c-13.312-16.896-21.504-38.144-22.4256-61.0816-0.1024-3.1744-0.256-6.4-0.512-9.5744-0.512-3.3792-1.536-8.5504-2.048-10.8544-0.512-1.9456-1.8944-5.7344-3.2768-9.728-18.944-3.7376-36.5056-13.0048-50.176-26.7264-5.632-5.5296-10.24-11.776-14.336-18.3296-4.864-0.8192-22.8352-3.1744-21.504-3.2768-17.152-1.4336-34.304-2.2528-51.4048-2.3552-93.0304-0.768-186.0608-0.1536-279.04-0.1024-15.1552 13.568-34.304 22.6304-55.3984 24.6784-3.2256 10.0864-6.144 20.2752-9.216 30.4128-8.704 28.16-18.0736 58.2656-36.0448 81.92 0 0.1024-0.1024 0.1536-0.1536 0.2048 12.6976 16.4864 20.3776 36.864 20.3776 58.88 0 7.3728-0.9216 14.5408-2.56 21.504 3.584 3.84 7.0144 7.936 9.984 12.288-0.256-36.7616 4.8128-133.376 63.488-162.816 29.5424-14.848 76.544 6.5536 180.4288 6.5536 116.3776 0 163.328-17.0496 189.952 3.84 24.32 19.0976 54.784 47.616 50.688 156.0064 2.9184-11.776 8.0896-22.6816 14.848-32.4096l-0.1024-2.9184c0-20.8384 6.912-40.2432 18.432-56.2176z" fill="#39291C" p-id="2819"></path><path d="M678.4 584.8576c0 32.256-26.112 58.5216-58.4704 58.5216-32.256 0-58.5216-26.2144-58.5216-58.5216h117.0432z" fill="#FFFFFF" p-id="2820"></path><path d="M679.936 580.608c0 33.1264-26.88 59.904-60.0064 59.904-33.0752 0-59.904-26.7776-59.904-59.904s26.8288-59.904 59.904-59.904c33.1264 0 59.904 26.8288 59.904 59.904z" fill="#E0AF7E" p-id="2821"></path><path d="M619.9296 635.392c-30.208 0-54.6816-24.576-54.6816-54.784s24.576-54.6816 54.6816-54.6816c30.208 0 54.784 24.576 54.784 54.6816s-24.576 54.784-54.784 54.784z" fill="#E0EEF4" p-id="2822"></path><path d="M619.9296 531.3536c27.136 0 49.3056 22.016 49.3056 49.2544 0 27.136-22.016 49.3056-49.2544 49.3056-27.136 0-49.2544-22.1184-49.2544-49.3056 0-27.136 22.1184-49.2544 49.2544-49.2544z" fill="#F1F7FC" p-id="2823"></path><path d="M619.9296 535.9104c24.6784 0 44.6976 20.0704 44.6976 44.6976 0 24.576-19.968 44.6976-44.6464 44.6976-24.576 0-44.6464-20.0704-44.6464-44.6976 0-24.576 19.968-44.6976 44.6464-44.6976z" fill="#FFFFFF" p-id="2824"></path><path d="M619.9296 611.328c-16.896 0-30.72-13.824-30.72-30.72s13.824-30.72 30.72-30.72c16.9984 0 30.72 13.824 30.72 30.72s-13.824 30.72-30.72 30.72z" fill="#6B4A37" p-id="2825"></path><path d="M619.9296 598.2208a17.6128 17.6128 0 1 1 0-35.2256c9.728 0 17.664 7.8848 17.664 17.6128s-7.936 17.6128-17.664 17.6128z" fill="#252324" p-id="2826"></path><path d="M612.7104 566.784c0 2.048-1.6896 3.7376-3.7376 3.7376-2.048 0-3.584-1.6384-3.584-3.6864 0-2.048 1.536-3.6864 3.584-3.6864 2.048 0 3.7376 1.6896 3.7376 3.7376z m26.624 24.576c0 3.4304-2.7648 6.144-6.144 6.144-3.3792 0-6.144-2.7136-6.144-6.144 0-3.328 2.7648-6.144 6.144-6.144 3.3792 0 6.144 2.816 6.144 6.144z" fill="#FFFFFF" p-id="2827"></path><path d="M341.6576 586.1376c0 32.256 26.2144 58.5216 58.5216 58.5216 32.256 0 58.5216-26.112 58.5216-58.4704H341.6064z" fill="#FFFFFF" p-id="2828"></path><path d="M340.224 581.888c0 33.0752 26.88 59.904 59.904 59.904 33.1264 0 59.904-26.7776 59.904-59.904s-26.7776-59.904-59.904-59.904c-33.024 0-59.904 26.8288-59.904 59.904z" fill="#E0AF7E" p-id="2829"></path><path d="M400.1792 636.6208c30.208 0 54.6816-24.576 54.6816-54.784 0-30.1056-24.576-54.6816-54.6816-54.6816-30.208 0-54.784 24.576-54.784 54.784 0 30.1056 24.576 54.6816 54.784 54.6816z" fill="#E0EEF4" p-id="2830"></path><path d="M400.1792 532.5824c-27.136 0-49.3056 22.1184-49.3056 49.3056 0 27.136 22.1184 49.3056 49.3056 49.3056 27.136 0 49.3056-22.1184 49.3056-49.3056 0-27.136-22.1696-49.3056-49.3568-49.3056z" fill="#F1F7FC" p-id="2831"></path><path d="M400.1792 537.1904c-24.576 0-44.6976 20.0704-44.6976 44.6976 0 24.576 20.0704 44.6976 44.6976 44.6976 24.576 0 44.6464-20.0704 44.6464-44.6976 0-24.576-19.968-44.6976-44.6464-44.6976z" fill="#FFFFFF" p-id="2832"></path><path d="M400.1792 612.608c16.896 0 30.72-13.824 30.72-30.72s-13.824-30.72-30.72-30.72-30.72 13.824-30.72 30.72 13.824 30.72 30.72 30.72z" fill="#6B4A37" p-id="2833"></path><path d="M400.1792 599.552c9.728 0 17.6128-7.936 17.6128-17.664 0-9.728-7.8848-17.664-17.6128-17.664s-17.6128 7.936-17.6128 17.664c0 9.728 7.8848 17.6128 17.6128 17.6128z" fill="#252324" p-id="2834"></path><path d="M411.136 568.1152m-3.6864 0a3.6864 3.6864 0 1 0 7.3728 0 3.6864 3.6864 0 1 0-7.3728 0Z" fill="#FFFFFF" p-id="2835"></path><path d="M380.8256 592.6912c0 3.3792 2.7136 6.144 6.144 6.144 3.328 0 6.144-2.7648 6.144-6.144 0-3.3792-2.816-6.144-6.144-6.144-3.4304 0-6.144 2.7648-6.144 6.144z" fill="#FFFFFF" p-id="2836"></path><path d="M659.456 507.392c-1.1264-0.6144-3.072-1.1776-5.4272-2.048-2.3552-0.9216-5.2224-2.048-8.5504-2.7648-6.5024-1.9456-14.6944-2.9696-22.6816-3.584-16.128-0.768-31.4368 2.56-34.0992 3.072-5.632 0.9216-13.568 3.9424-17.92-4.608-2.4064-4.352 1.9456-8.704 8.704-11.6224 6.656-3.072 15.5648-4.4032 22.016-4.7616 6.4512-0.6144 20.5824-0.2048 33.6896 3.1744 3.2768 0.9216 6.5024 1.6896 9.5232 2.7136l8.3968 3.2256c5.12 2.3552 9.0112 4.4544 11.1616 5.632 4.096 2.7648 8.704 5.2736 11.776 8.704 3.072 3.1744 5.12 6.144 4.7104 8.5504-1.024 4.7616-12.1344-2.048-21.3504-5.8368z" fill="#39291C" p-id="2837"></path><path d="M360.704 508.16c1.024-0.512 3.072-1.1264 5.376-2.048 2.3552-0.8192 5.2224-1.9456 8.5504-2.6624 6.5024-2.048 14.6944-3.072 22.6816-3.584 16.128-0.8192 31.4368 2.56 34.0992 3.072 5.632 0.8704 13.6192 3.8912 17.92-4.608 2.4064-4.352-1.9456-8.704-8.704-11.6224-6.656-3.072-15.5648-4.352-22.016-4.7616-6.5024-0.512-20.5824-0.1536-33.6896 3.2256-3.2768 0.9216-6.5024 1.6896-9.5232 2.7648l-8.448 3.2256c-5.0176 2.304-8.96 4.4032-11.1104 5.632-4.096 2.7136-8.704 5.2736-11.776 8.6016-3.072 3.2768-5.12 6.2464-4.7104 8.704 1.024 4.7616 12.1344-2.048 21.3504-5.888z" fill="#39291C" p-id="2838"></path><path d="M510.464 824.4224c-46.592 0-76.6464-20.736-93.5424-38.144-19.712-20.224-32.4096-47.5136-32.4096-69.4272 0-21.4016 17.408-23.9104 30.5664-23.9104 1.4336 0 2.8672 0 4.352 0.1024 9.0624 0.3584 19.456 1.6384 31.4368 3.072 17.7664 2.2016 37.888 4.7104 59.5456 4.7104 21.504 0 41.6768-2.56 59.392-4.7104 10.752-1.28 20.7872-2.56 29.3888-2.9696 2.304-0.1024 4.4544-0.2048 6.4512-0.2048 13.1072 0 30.6176 2.56 30.6176 23.9616 0 22.2208-12.544 49.0496-32.4608 69.4784-16.896 17.408-46.8992 38.144-93.44 38.144z" fill="#DE9C67" p-id="2839"></path><path d="M631.7056 717.312c0 18.5856-10.24 44.9536-31.1296 66.3552-20.1728 20.736-50.176 36.7616-90.112 36.7616s-70.144-16.0256-90.2656-36.7616C399.36 762.2656 389.12 735.9488 389.12 717.312c0-17.152 11.6736-20.992 30.9248-20.3776h0.2048c22.2208 0.8704 54.3744 7.68 90.112 7.68 34.7136 0 66.048-6.4 88.064-7.5776h0.2048c20.48-1.024 33.0752 2.56 33.0752 20.224z" fill="#4E1821" p-id="2840"></path><path d="M420.5568 696.832s0 0.6144 0.2048 1.536c0.9216 5.376 5.12 23.7568 19.3536 28.16 12.032 3.7888 41.8816 10.6496 86.016 8.6016 17.2032-0.8192 33.28-1.3312 53.5552-7.936 23.9616-7.7824 21.2992-30.208 21.2992-30.208s-3.4304-1.4336-42.0864 4.352c-18.1248 2.7136-21.4016 2.1504-35.584 3.2256-9.0112 0.6656-48.9472-1.8432-48.9472-1.8432l-53.76-5.7856z" fill="#FFFFFF" p-id="2841"></path><path d="M555.52 823.6544c-12.4928 5.632-27.4944 9.3696-45.056 9.3696s-32.768-3.7376-45.2608-9.3696c-8.9088-3.9936-8.0384-6.144 1.024-2.9696 12.6464 4.1984 27.3408 6.912 44.1856 6.912 17.1008 0 32.0512-2.816 44.9024-7.2704 8.704-3.072 9.216-0.7168 0.2048 3.2768z" fill="#FFFFFF" p-id="2842"></path><path d="M510.464 755.4048l-1.7408-0.8192c-7.68-3.584-40.96-15.6672-78.848 18.176 0 0-7.168 8.704 8.704 19.1488s43.52 23.7568 78.7456 21.7088 71.3216-22.016 75.008-31.5904-12.9536-20.3264-22.016-23.7568-32.768-13.4144-59.904-2.8672z" fill="#8C2331" p-id="2843"></path><path d="M659.456 511.8976c-1.1264-0.512-3.072-1.1264-5.4272-2.048-2.3552-0.8192-5.2224-1.9456-8.5504-2.6624-6.5024-2.048-14.6944-3.072-22.6816-3.584-16.128-0.8192-31.4368 2.56-34.0992 3.072-5.632 0.8704-13.568 3.8912-17.92-4.608-2.4064-4.4032 1.9456-8.704 8.704-11.6224 6.656-3.072 15.5648-4.4544 22.016-4.8128 6.4512-0.512 20.5824-0.1536 33.6896 3.1744 3.2768 1.024 6.5024 1.7408 9.5232 2.7648l8.3968 3.2256c5.12 2.3552 9.0112 4.4544 11.1616 5.632 4.096 2.7648 8.704 5.3248 11.776 8.704 3.072 3.1744 5.12 6.144 4.7104 8.4992-1.024 4.864-12.1344-1.8944-21.3504-5.7344z" fill="#39291C" p-id="2844"></path><path d="M360.704 512.768c1.024-0.6144 3.072-1.1264 5.376-2.048 2.3552-0.8704 5.2224-1.9456 8.5504-2.7136 6.5024-1.9456 14.6944-3.072 22.6816-3.584 16.128-0.768 31.4368 2.56 34.0992 3.072 5.632 0.9216 13.6192 3.9424 17.92-4.608 2.4064-4.352-1.9456-8.704-8.704-11.6224-6.656-2.9696-15.5648-4.352-22.016-4.7104-6.5024-0.6144-20.5824-0.2048-33.6896 3.1744-3.2768 0.9216-6.5024 1.7408-9.5232 2.7648-2.9696 1.024-5.8368 2.2016-8.448 3.1744-5.0176 2.3552-8.96 4.4032-11.1104 5.632-4.096 2.7136-8.704 5.2736-11.776 8.704-3.072 3.072-5.12 6.144-4.7104 8.4992 1.024 4.8128 12.1344-1.9456 21.3504-5.7856z" fill="#39291C" p-id="2845"></path><path d="M770.304 457.0112c-6.144-0.7168-12.288-1.4336-18.5856-2.3552-20.8896-2.9696-57.856-5.8368-84.992-7.0144-66.2528-2.8672-132.608-1.792-199.0144-2.7136-66.7648-0.9216-133.5296-2.1504-200.2944 0.1536-11.1616 0.3584-22.3232 0.9216-33.4848 1.4336-1.3824 0.1536-2.6624 0.1536-3.9424 0.256 2.048 8.5504 2.3552 17.3056 0.9216 25.8048C286.72 480.6144 371.712 479.744 506.88 479.744h7.0656c126.8224-0.1024 209.408 0.8192 265.1136-5.7856-3.6864-5.2224-6.656-10.9056-8.704-16.896z" fill="#040000" p-id="2846"></path><path d="M254.464 124.0064C192.6144 189.696 154.4704 282.368 154.4704 392.96c0 9.0112 0.3072 18.0224 0.768 26.88 69.0176-20.0704 199.0144-33.536 348.0576-33.536 154.2144 0 288.1024 14.4384 355.0208 35.6352 0.512-9.5232 0.8704-19.2 0.8704-28.928 0-120.32-45.056-219.4944-116.736-285.696-67.9936-38.8096-146.5856-60.928-230.4-60.928-95.232 0-183.808 28.5696-257.536 77.6704z" fill="#F5D031" p-id="2847"></path><path d="M506.88 467.3024c-221.184 0-307.8144 2.7648-352.4096-36.352-27.5456-24.2688 134.656-52.8384 355.9424-52.8384 221.184 0 383.3856 28.5696 355.84 52.736-44.544 39.2192-131.072 36.4544-352.3584 36.4544h-7.168z" fill="#F4BF31" p-id="2848"></path><path d="M154.9312 413.44s10.6496-3.1744 29.3888-8.2944c9.472-2.048 20.992-4.7104 34.2016-7.68 13.312-2.56 28.3136-5.632 44.8-8.192 16.4864-2.304 34.304-5.5296 53.248-7.3728l29.2864-3.3792c9.9328-1.1264 20.1728-1.7408 30.5664-2.56 20.7872-1.8944 42.2912-3.072 64.1536-3.9936 21.9136-0.8704 44.032-1.024 66.4576-1.3312l33.1776 0.6144c11.0592 0.1024 22.1184 0.512 33.0752 1.024 21.9136 0.9216 43.52 2.3552 64.2048 4.2496 20.7872 1.536 40.8064 3.9936 59.8016 6.2976 18.944 2.048 36.7616 5.3248 53.248 7.68 16.384 2.816 31.4368 5.9392 44.6976 8.5504l34.2016 8.0384c18.688 5.376 29.2864 8.704 29.2864 8.704s-10.9568-2.048-29.9008-5.8368l-34.5088-5.376-44.9024-5.5296-25.7536-2.56c-8.8576-0.9216-18.0224-1.8944-27.4944-2.56-18.944-1.536-38.912-3.072-59.5456-4.2496-10.3424-0.512-20.8384-1.3824-31.488-1.7408l-32.256-1.1776c-21.504-1.1264-43.8272-0.7168-65.9456-1.1776-21.9136 0.1536-44.1344 0.1024-65.8432 0.8192-21.7088 0.9216-43.1104 1.1776-63.744 2.56-20.736 1.024-40.704 2.4576-59.648 3.9424-9.472 0.6144-18.6368 1.536-27.5456 2.4064l-25.7536 2.4064-44.9536 5.12c-13.312 1.9456-24.9344 3.584-34.5088 5.12-19.0464 3.584-30.0032 5.376-30.0032 5.376z" fill="#C08139" p-id="2849"></path><path d="M441.344 51.712l29.3376 233.8304c6.0416 26.7776 66.048 26.7776 72.192 0L572.416 50.176c-19.7632-2.56-39.936-3.84-60.416-3.84-24.064 0-47.616 1.792-70.656 5.3248z" fill="#F4BF31" p-id="2850"></path></svg>