<?xml version="1.0" standalone="no"?><!DOCTYPE svg PUBLIC "-//W3C//DTD SVG 1.1//EN" "http://www.w3.org/Graphics/SVG/1.1/DTD/svg11.dtd"><svg t="1576736471393" class="icon" viewBox="0 0 1024 1024" version="1.1" xmlns="http://www.w3.org/2000/svg" p-id="3116" xmlns:xlink="http://www.w3.org/1999/xlink" width="30" height="30"><defs><style type="text/css"></style></defs><path d="M512 512m-512 0a512 512 0 1 0 1024 0 512 512 0 1 0-1024 0Z" fill="#9AF4EF" p-id="3117"></path><path d="M20.48 655.36c167.253333-6.826667 692.906667-34.133333 996.693333-51.2 6.826667-30.72 6.826667-61.44 6.826667-92.16 0-30.72-3.413333-58.026667-6.826667-88.746667-269.653333 10.24-768 58.026667-1017.173333 102.4 0 44.373333 6.826667 88.746667 20.48 129.706667z" fill="#FFFFF4" p-id="3118"></path><path d="M17.066667 641.706667c201.386667 3.413333 744.106667 3.413333 989.866666 3.413333 10.24-40.96 17.066667-85.333333 17.066667-129.706667-300.373333 3.413333-849.92 20.48-1020.586667 44.373334 0 27.306667 6.826667 54.613333 13.653334 81.92z" fill="#FFFFF4" p-id="3119"></path><path d="M300.373333 296.96c0-23.893333 17.066667-40.96 40.96-40.96h10.24c10.24-10.24 27.306667-17.066667 44.373334-17.066667 30.72 0 58.026667 27.306667 58.026666 58.026667H300.373333zM259.413333 157.013333c0-20.48 13.653333-34.133333 34.133334-34.133333h6.826666c10.24-10.24 20.48-17.066667 34.133334-17.066667 27.306667 0 47.786667 20.48 47.786666 47.786667H259.413333zM856.746667 392.533333c0-13.653333 10.24-23.893333 23.893333-23.893333h6.826667c6.826667-6.826667 17.066667-10.24 27.306666-10.24 20.48 0 37.546667 17.066667 37.546667 37.546667l-95.573333-3.413334zM740.693333 290.133333c0-20.48 13.653333-34.133333 34.133334-34.133333h6.826666c10.24-10.24 20.48-17.066667 34.133334-17.066667 27.306667 0 47.786667 20.48 47.786666 47.786667h-122.88z" fill="#FFFFFF" p-id="3120"></path><path d="M331.093333 252.586667c-3.413333 0-10.24 0-13.653333 3.413333-13.653333-20.48-37.546667-34.133333-64.853333-34.133333s-47.786667 10.24-64.853334 30.72c-3.413333 0-10.24-3.413333-13.653333-3.413334-23.893333 3.413333-44.373333 23.893333-44.373333 47.786667H375.466667c0-23.893333-20.48-44.373333-44.373334-44.373333zM740.693333 256c-3.413333 0-6.826667 0-10.24 3.413333a59.733333 59.733333 0 0 0-95.573333 0c-3.413333 0-6.826667-3.413333-10.24-3.413333-20.48 0-34.133333 17.066667-34.133333 34.133333h184.32c3.413333-17.066667-13.653333-34.133333-34.133334-34.133333zM860.16 368.64H853.333333c-6.826667-10.24-20.48-17.066667-34.133333-17.066667s-27.306667 6.826667-34.133333 17.066667h-6.826667c-13.653333 0-23.893333 10.24-23.893333 23.893333H887.466667c0-13.653333-13.653333-23.893333-27.306667-23.893333zM563.2 146.773333c0-23.893333 20.48-44.373333 44.373333-44.373333h10.24c10.24-13.653333 27.306667-20.48 47.786667-20.48 34.133333 0 64.853333 27.306667 64.853333 64.853333h-167.253333z" fill="#FFFFFF" p-id="3121"></path><path d="M3.413333 573.44C34.133333 826.026667 249.173333 1024 512 1024s477.866667-197.973333 508.586667-450.56H3.413333z" fill="#B0EB81" p-id="3122"></path><path d="M614.4 259.413333l-23.893333-30.72c-6.826667-10.24-20.48-10.24-27.306667 0l-23.893333 30.72-34.133334 259.413334H648.533333l-34.133333-259.413334z" fill="#C4B478" p-id="3123"></path><path d="M566.613333 228.693333h-3.413333l-23.893333 30.72-34.133334 259.413334H624.64l-34.133333-259.413334-23.893334-30.72z" fill="#BCA077" p-id="3124"></path><path d="M648.533333 552.96h-146.773333v-102.4s0-3.413333 3.413333-3.413333H648.533333s3.413333 0 3.413334 3.413333v102.4z" fill="#8C665B" p-id="3125"></path><path d="M576.853333 471.04c-17.066667 0-27.306667 13.653333-27.306666 27.306667v51.2h58.026666v-51.2c-3.413333-13.653333-17.066667-27.306667-30.72-27.306667z" fill="#674447" p-id="3126"></path><path d="M426.666667 382.293333l40.96 40.96c10.24 10.24 23.893333 6.826667 30.72-3.413333L576.853333 273.066667l-146.773333 81.92c-10.24 6.826667-13.653333 20.48-3.413333 27.306666zM727.04 382.293333l-40.96 40.96c-10.24 10.24-23.893333 6.826667-30.72-3.413333L576.853333 273.066667l146.773334 81.92c10.24 6.826667 13.653333 20.48 3.413333 27.306666zM727.04 160.426667l-40.96-40.96c-10.24-10.24-23.893333-6.826667-30.72 3.413333L576.853333 273.066667l146.773334-81.92c10.24-6.826667 13.653333-20.48 3.413333-30.72zM426.666667 160.426667l40.96-40.96c10.24-10.24 23.893333-6.826667 30.72 3.413333L576.853333 273.066667l-146.773333-81.92c-10.24-6.826667-13.653333-20.48-3.413333-30.72z" fill="#8C665B" p-id="3127"></path><path d="M552.96 273.066667a23.893333 23.893333 0 1 0 47.786667 0 23.893333 23.893333 0 1 0-47.786667 0Z" fill="#8C665B" p-id="3128"></path><path d="M870.4 699.733333c-3.413333 0-10.24-3.413333-10.24-10.24v-95.573333c0-3.413333 3.413333-10.24 10.24-10.24 3.413333 0 10.24 3.413333 10.24 10.24v95.573333c0 3.413333-3.413333 10.24-10.24 10.24z" fill="#674447" p-id="3129"></path><path d="M928.426667 587.093333c0 30.72-23.893333 54.613333-54.613334 54.613334s-54.613333-23.893333-54.613333-54.613334 23.893333-122.88 54.613333-122.88 54.613333 92.16 54.613334 122.88z" fill="#43AB5F" p-id="3130"></path><path d="M870.4 464.213333c-6.826667 0-13.653333 6.826667-20.48 13.653334 27.306667 0 51.2 85.333333 51.2 112.64 0 23.893333-17.066667 44.373333-40.96 47.786666h10.24c30.72 0 54.613333-23.893333 54.613333-54.613333 3.413333-27.306667-23.893333-119.466667-54.613333-119.466667z" fill="#71BE63" p-id="3131"></path><path d="M180.906667 631.466667c-3.413333 0-10.24-3.413333-10.24-6.826667v-71.68c0-3.413333 3.413333-6.826667 10.24-6.826667s10.24 3.413333 10.24 6.826667v71.68c0 3.413333-3.413333 6.826667-10.24 6.826667z" fill="#674447" p-id="3132"></path><path d="M228.693333 532.48c0 37.546667-20.48 54.613333-47.786666 54.613333s-47.786667-17.066667-47.786667-54.613333 30.72-177.493333 47.786667-177.493333 47.786667 139.946667 47.786666 177.493333z" fill="#43AB5F" p-id="3133"></path><path d="M180.906667 351.573333c-3.413333 0-6.826667 6.826667-10.24 13.653334 13.653333 23.893333 34.133333 136.533333 34.133333 167.253333 0 30.72-13.653333 47.786667-30.72 51.2h10.24c27.306667 0 47.786667-17.066667 47.786667-54.613333s-30.72-177.493333-51.2-177.493334z" fill="#71BE63" p-id="3134"></path><path d="M310.613333 587.093333c-6.826667 0-10.24-6.826667-10.24-10.24v-122.88c0-6.826667 6.826667-10.24 10.24-10.24 6.826667 0 10.24 6.826667 10.24 10.24v122.88c0 6.826667-3.413333 10.24-10.24 10.24z" fill="#674447" p-id="3135"></path><path d="M382.293333 443.733333c0 40.96-30.72 71.68-71.68 71.68S238.933333 481.28 238.933333 443.733333s30.72-163.84 71.68-163.84 71.68 122.88 71.68 163.84z" fill="#43AB5F" p-id="3136"></path><path d="M310.613333 279.893333c-10.24 0-20.48 6.826667-27.306666 20.48 37.546667 0 64.853333 112.64 64.853333 150.186667 0 30.72-23.893333 58.026667-51.2 64.853333h13.653333c40.96 0 71.68-30.72 71.68-71.68 0-40.96-30.72-163.84-71.68-163.84zM23.893333 669.013333C92.16 873.813333 283.306667 1024 512 1024c221.866667 0 409.6-139.946667 481.28-337.92-221.866667-10.24-296.96-191.146667-481.28-191.146667-238.933333 0-317.44 163.84-488.106667 174.08z" fill="#71BE63" p-id="3137"></path><path d="M993.28 686.08c-221.866667-10.24-296.96-191.146667-481.28-191.146667h-34.133333c204.8 13.653333 296.96 252.586667 447.146666 314.026667 30.72-34.133333 51.2-78.506667 68.266667-122.88z" fill="#94D75B" p-id="3138"></path><path d="M51.2 733.866667C133.12 904.533333 307.2 1024 512 1024c136.533333 0 259.413333-51.2 351.573333-139.946667-324.266667-17.066667-413.013333-238.933333-812.373333-150.186666z" fill="#43AB5F" p-id="3139"></path><path d="M501.76 778.24c27.306667 10.24 51.2 23.893333 78.506667 34.133333 112.64-95.573333 242.346667-167.253333 163.84-218.453333l-44.373334-30.72c129.706667 81.92-40.96 136.533333-197.973333 215.04z" fill="#C4B478" p-id="3140"></path><path d="M109.226667 829.44c44.373333 58.026667 102.4 105.813333 167.253333 136.533333 3.413333-92.16 58.026667-153.6 129.706667-225.28-34.133333-10.24-71.68-20.48-112.64-23.893333-64.853333 17.066667-139.946667 58.026667-184.32 112.64z" fill="#BCA077" p-id="3141"></path><path d="M747.52 593.92l-44.373333-30.72c51.2 30.72 54.613333 58.026667 34.133333 85.333333 6.826667 6.826667 10.24 13.653333 17.066667 17.066667 20.48-27.306667 23.893333-51.2-6.826667-71.68z" fill="#CCBE84" p-id="3142"></path><path d="M68.266667 768C157.013333 921.6 324.266667 1024 512 1024c54.613333 0 109.226667-10.24 157.013333-23.893333-146.773333-71.68-354.986667-314.026667-600.746666-232.106667z" fill="#3C9B61" p-id="3143"></path><path d="M204.8 754.346667c-37.546667 20.48-68.266667 44.373333-95.573333 75.093333 3.413333 3.413333 6.826667 6.826667 6.826666 10.24 6.826667 6.826667 13.653333 13.653333 20.48 23.893333 3.413333 3.413333 6.826667 6.826667 6.826667 10.24l13.653333 13.653334 6.826667 6.826666 13.653333 13.653334 6.826667 6.826666c10.24 0 17.066667 3.413333 20.48 6.826667l3.413333 3.413333c20.48 17.066667 44.373333 30.72 68.266667 40.96 0-64.853333 30.72-116.053333 75.093333-167.253333-44.373333-23.893333-95.573333-40.96-146.773333-44.373333z" fill="#AD9172" p-id="3144"></path></svg>