<?xml version="1.0" standalone="no"?><!DOCTYPE svg PUBLIC "-//W3C//DTD SVG 1.1//EN" "http://www.w3.org/Graphics/SVG/1.1/DTD/svg11.dtd"><svg t="1576818952996" class="icon" viewBox="0 0 1024 1024" version="1.1" xmlns="http://www.w3.org/2000/svg" p-id="3457" xmlns:xlink="http://www.w3.org/1999/xlink" width="30" height="30"><defs><style type="text/css"></style></defs><path d="M512 512m-512 0a512 512 0 1 0 1024 0 512 512 0 1 0-1024 0Z" fill="#FAE268" p-id="3458"></path><path d="M130.2016 570.88a53.6576 53.6576 0 1 0 72.704-21.7088 53.6576 53.6576 0 0 0-72.704 21.7088z m0 0" fill="#FFB000" p-id="3459"></path><path d="M246.6304 713.8816L104.96 637.44a17.8176 17.8176 0 0 1-7.2192-24.2176l19.0976-35.3792 4.4544 0.4096a22.3232 22.3232 0 0 0 19.6096-36.3008l-2.816-3.4816 19.1488-35.3792a17.8688 17.8688 0 0 1 24.2176-7.2704l141.6192 76.4928a17.92 17.92 0 0 1 7.168 24.1664l-19.0976 35.3792-4.4544-0.4608a22.4256 22.4256 0 0 0-19.6608 36.352l2.816 3.4304-19.0976 35.4304a17.8688 17.8688 0 0 1-24.2176 7.2192z m-122.0608-122.1632L109.568 619.52a4.7104 4.7104 0 0 0-0.3584 3.4304 4.6592 4.6592 0 0 0 2.1504 2.6624l141.6192 76.4928a4.5568 4.5568 0 0 0 6.0928-1.8432l15.0016-27.8016a35.84 35.84 0 0 1 29.44-54.528l15.0016-27.8016a4.4544 4.4544 0 0 0-1.792-6.0416L175.104 507.5968a4.3008 4.3008 0 0 0-3.3792-0.3584 4.6592 4.6592 0 0 0-2.6624 2.1504l-15.0016 27.8016a35.84 35.84 0 0 1-29.4912 54.528z m0 0" fill="#3E424E" p-id="3460"></path><path d="M205.056 541.5424l11.776 6.3488-10.5984 19.712-11.776-6.4z m-16.9984 31.488l11.776 6.3488-10.5984 19.6608-11.776-6.3488z m-16.9984 31.4368l11.776 6.4-10.5984 19.6608-11.776-6.4z m0 0z" fill="#3E424E" p-id="3461"></path><path d="M423.5776 183.5008c-59.3408 32.3584-102.4 84.736-116.1728 149.3504a94.8224 94.8224 0 1 1 116.1728-149.3504zM887.4496 329.9328a94.72 94.72 0 0 1-65.28 90.112c6.7584-64.6656-17.7664-128-63.8976-178.432a93.5424 93.5424 0 0 1 34.3552-6.4512 94.8224 94.8224 0 0 1 94.8224 94.7712z" fill="#5A251F" p-id="3462"></path><path d="M844.9024 442.88c-0.512 5.9904-1.4336 11.8784-2.56 17.92-25.344 131.072-172.5952 212.8384-328.9088 182.6304s-262.3488-160.9728-237.0048-291.84c0-1.0752 0.4096-2.2016 0.6656-3.2768 13.568-64.6144 56.7808-116.9408 116.1216-149.3504s134.5536-45.0048 212.0192-30.0544a319.4368 319.4368 0 0 1 175.8208 95.744c46.1312 49.92 70.6048 113.4592 63.8464 178.2272z" fill="#FFFDFD" p-id="3463"></path><path d="M667.258022 462.708601a78.848 68.7616 56.06 1 0 114.092369-76.782562 78.848 68.7616 56.06 1 0-114.092369 76.782562Z" fill="#4F2114" p-id="3464"></path><path d="M337.270428 414.328696a67.7888 79.7184 54.28 1 0 129.443514-93.083134 67.7888 79.7184 54.28 1 0-129.443514 93.083134Z" fill="#4F2114" p-id="3465"></path><path d="M547.328334 485.248122a34.304 22.4768 7.65 1 0 5.984283-44.553502 34.304 22.4768 7.65 1 0-5.984283 44.553502Z" fill="#4F2114" p-id="3466"></path><path d="M375.4496 383.0272m-11.3664 0a11.3664 11.3664 0 1 0 22.7328 0 11.3664 11.3664 0 1 0-22.7328 0Z" fill="#FFFDFD" p-id="3467"></path><path d="M716.8 443.7504m-11.3664 0a11.3664 11.3664 0 1 0 22.7328 0 11.3664 11.3664 0 1 0-22.7328 0Z" fill="#FFFDFD" p-id="3468"></path><path d="M397.9776 598.784a17.2544 17.2544 0 0 0-14.4384-4.1984c-29.5936 8.2944-110.4896 27.392-102.912 65.3312 5.12 25.9072 45.4144 24.1664 57.2928 23.1424a3.1232 3.1232 0 0 1 3.4304 3.1232v26.8288s-11.5712 132.5568 30.3104 174.4384c3.328 3.328 3.7376 12.4416 3.1744 21.6576a33.3312 33.3312 0 0 0 21.6064 33.1776l9.4208 3.5328a37.7856 37.7856 0 0 0 43.4688-12.6976 17.4592 17.4592 0 0 1 15.36-7.0144c25.1392 1.8944 92.16 6.8608 104.192 6.8608a8.3968 8.3968 0 0 1 8.0384 4.3008 32.3584 32.3584 0 0 0 32.2048 15.36l14.6944-1.4848a31.6416 31.6416 0 0 0 28.5184-31.488v-7.7312a2.9696 2.9696 0 0 1 1.0752-2.4064c8.192-6.7584 58.368-51.968 44.4416-135.68-15.36-91.0336 41.8304 20.48 60.672-7.5776 30.3104-45.5168-62.5664-109.1584-79.6672-125.3888a13.6192 13.6192 0 0 0-8.8576-3.7376c-17.0496-0.5632-74.4448 12.3904-132.5056 7.0144-61.7472-5.9392-127.8976-37.4272-139.52-45.3632z" fill="#512414" p-id="3469"></path><path d="M394.3936 781.2608a128.9728 91.0336 0 1 0 257.9456 0 128.9728 91.0336 0 1 0-257.9456 0Z" fill="#FFFFFF" p-id="3470"></path></svg>